<svg xmlns="http://www.w3.org/2000/svg" width="800" height="700"><text x="400" y="40" fill="#000" font-family="Arial" font-size="24" text-anchor="middle">Natural Language Processing (NLP)</text><text x="400" y="80" fill="#000" font-family="Arial" font-size="16" text-anchor="middle">Esempio: Analisi del Sentiment</text><rect width="600" height="100" x="100" y="120" fill="#add8e6" stroke="#000"/><text x="400" y="150" fill="#000" font-family="Arial" font-size="14" text-anchor="middle">Input: &quot;Il servizio è stato eccellente e il cibo delizioso!&quot;</text><line x1="400" x2="400" y1="220" y2="270" stroke="#000" stroke-width="2"/><polygon fill="#000" points="400 270 395 260 405 260"/><rect width="200" height="100" x="300" y="270" fill="#90ee90" stroke="#000"/><text x="400" y="320" fill="#000" font-family="Arial" font-size="14" text-anchor="middle">Elaborazione NLP</text><line x1="400" x2="400" y1="370" y2="420" stroke="#000" stroke-width="2"/><polygon fill="#000" points="400 420 395 410 405 410"/><rect width="100" height="50" x="350" y="420" fill="#f08080" stroke="#000"/><text x="400" y="450" fill="#000" font-family="Arial" font-size="14" text-anchor="middle">Positivo</text><rect width="700" height="160" x="50" y="500" fill="#fff" stroke="#000" stroke-width="1"/><text x="70" y="530" fill="#000" font-family="Arial" font-size="16" font-weight="bold">Legenda:</text><rect width="20" height="20" x="70" y="550" fill="#add8e6" stroke="#000"/><text x="100" y="565" fill="#000" font-family="Arial" font-size="14">Input: Testo in linguaggio naturale (es. una recensione).</text><rect width="20" height="20" x="70" y="590" fill="#90ee90" stroke="#000"/><text x="100" y="605" fill="#000" font-family="Arial" font-size="14">Elaborazione NLP: Analisi del testo per estrarre significato.</text><rect width="20" height="20" x="70" y="630" fill="#f08080" stroke="#000"/><text x="100" y="645" fill="#000" font-family="Arial" font-size="14">Output: Risultato dell&apos;analisi (es. sentiment positivo).</text></svg>